# xmcd
#
# Track frame offsets:
#	150
#	17246
#	34475
#	57941
#	71939
#	90989
#	111067
#	130300
#	148791
#
# Disc length: 2296 seconds
#
# Revision: 1
# Processed by: cddbd v1.5.2PL0 Copyright (c) Steve Scherf et al.
# Submitted via: audiograbber 1.83.01
#
DISCID=8308f609
DTITLE=Corinne West - The Promise
DYEAR=2009
DGENRE=Country Folk
TTITLE0=The Promise
TTITLE1=Pollen
TTITLE2=The Stranger
TTITLE3=Lily Ann
TTITLE4=The River's Fool
TTITLE5=Everybody's Talkin'
TTITLE6=Whisky Poet
TTITLE7=Lady Luck
TTITLE8=Turn The Wheel
EXTD=
EXTT0=
EXTT1=
EXTT2=
EXTT3=
EXTT4=
EXTT5=
EXTT6=
EXTT7=
EXTT8=
PLAYORDER=
